<svg width="201" height="47" viewBox="0 0 201 47" fill="none" xmlns="http://www.w3.org/2000/svg">
<path d="M42.548 20.701C44.315 20.701 45.803 21.786 45.803 23.677H39.169C39.479 21.755 40.812 20.701 42.548 20.701ZM50.825 28.265H45.183C44.749 29.195 43.912 29.939 42.424 29.939C40.719 29.939 39.324 28.885 39.138 26.622H51.135C51.197 26.095 51.228 25.568 51.228 25.072C51.228 19.802 47.663 16.454 42.61 16.454C37.464 16.454 33.868 19.864 33.868 25.351C33.868 30.838 37.526 34.248 42.61 34.248C46.919 34.248 49.988 31.644 50.825 28.265ZM52.3815 16.702L58.5195 34H65.0605L71.1985 16.702H65.5565L61.8055 29.04L58.0545 16.702H52.3815ZM90.3558 25.351C90.3558 19.864 86.4498 16.454 81.3658 16.454C76.3128 16.454 72.3758 19.864 72.3758 25.351C72.3758 30.838 76.2198 34.248 81.3038 34.248C86.3878 34.248 90.3558 30.838 90.3558 25.351ZM77.7698 25.351C77.7698 22.406 79.4438 21.042 81.3658 21.042C83.2258 21.042 84.9618 22.406 84.9618 25.351C84.9618 28.265 83.1948 29.66 81.3038 29.66C79.3818 29.66 77.7698 28.265 77.7698 25.351ZM103.398 34H109.35L103.398 25.413L109.195 16.702H103.46L100.67 21.476L97.3531 16.702H91.4011L97.2601 25.165L91.5561 34H97.2911L100.081 29.195L103.398 34ZM134.077 12.362V29.536L122.731 12.362H119.91V34H122.731V16.795L134.077 34H136.898V12.362H134.077ZM148.93 19.12C151.844 19.12 154.324 20.949 154.293 24.266H143.567C143.877 20.949 146.171 19.12 148.93 19.12ZM156.866 28.761H153.828C153.208 30.59 151.596 31.892 149.054 31.892C146.171 31.892 143.753 30.001 143.536 26.56H157.114C157.176 25.971 157.207 25.475 157.207 24.855C157.207 20.205 153.983 16.733 149.054 16.733C144.094 16.733 140.653 20.112 140.653 25.475C140.653 30.869 144.218 34.279 149.054 34.279C153.27 34.279 155.998 31.861 156.866 28.761ZM164.248 34H167.162L171.254 20.515L175.346 34H178.26L183.561 17.012H180.771L176.927 31.303L172.804 17.012H169.921L165.705 31.272L161.799 17.012H158.916L164.248 34ZM198.575 29.381C198.451 23.305 188.593 25.506 188.593 21.476C188.593 20.112 189.833 19.12 191.91 19.12C194.173 19.12 195.475 20.36 195.599 22.065H198.42C198.234 18.748 195.754 16.733 192.003 16.733C188.221 16.733 185.772 18.872 185.772 21.476C185.772 27.8 195.816 25.599 195.816 29.381C195.816 30.776 194.576 31.892 192.344 31.892C189.957 31.892 188.5 30.652 188.345 29.009H185.431C185.617 32.109 188.407 34.279 192.375 34.279C196.126 34.279 198.575 32.171 198.575 29.381Z" fill="white"/>
<path d="M21.5196 27.0631C21.0921 27.0631 20.7849 26.836 20.304 26.3952L15.4684 22.0806H5.67711C2.05699 22.094 1.52588e-05 19.9834 1.52588e-05 16.4169V5.67712C1.52588e-05 2.09719 2.05699 0 5.67711 0H23.3229C26.9429 0 29 2.08384 29 5.67712V16.4169C29 19.9968 26.9429 22.0806 23.3229 22.0806H22.4814V25.9544C22.4814 26.6223 22.1207 27.0631 21.5196 27.0631ZM20.5712 9.75129C20.5712 8.29527 19.4491 7.22662 17.953 7.22662C16.3902 7.22662 15.2414 8.48228 15.2414 10.2188C15.2414 13.3846 17.8328 14.8406 19.0083 14.8406C19.3422 14.8406 19.5827 14.6002 19.5827 14.293C19.5827 14.0258 19.4625 13.8254 19.0217 13.7186C18.2603 13.5182 17.1916 12.8102 16.7375 11.7015H16.8443C17.1783 12.129 17.7126 12.2492 18.2603 12.2492C19.6762 12.2492 20.5712 11.1672 20.5712 9.75129ZM13.7453 9.75129C13.7453 8.29527 12.6232 7.22662 11.1271 7.22662C9.56426 7.22662 8.41549 8.48228 8.41549 10.2188C8.41549 13.3846 10.9936 14.8406 12.1824 14.8406C12.5164 14.8406 12.7568 14.6002 12.7568 14.293C12.7568 14.0258 12.6232 13.8254 12.1958 13.7186C11.4344 13.5182 10.3524 12.8102 9.91156 11.7015H10.0051C10.3524 12.129 10.8733 12.2492 11.4344 12.2492C12.837 12.2492 13.7453 11.1672 13.7453 9.75129Z" fill="white"/>
</svg>
