<svg width="35" height="35" viewBox="0 0 35 35" fill="none" xmlns="http://www.w3.org/2000/svg">
<path d="M27.7082 2.91667H7.2915C6.13118 2.91667 5.01838 3.3776 4.19791 4.19808C3.37744 5.01855 2.9165 6.13135 2.9165 7.29167V27.7083C2.9165 28.8687 3.37744 29.9815 4.19791 30.8019C5.01838 31.6224 6.13118 32.0833 7.2915 32.0833H27.7082C27.948 32.08 28.1872 32.0556 28.4228 32.0104L28.8603 31.9083H28.9623H29.0353L29.5748 31.7042L29.7644 31.6021C29.9103 31.5146 30.0707 31.4417 30.2165 31.3396C30.4112 31.1963 30.5964 31.0404 30.7707 30.8729L30.8728 30.7417C31.0159 30.5966 31.1476 30.4405 31.2665 30.275L31.3978 30.0854C31.4996 29.9231 31.5874 29.7523 31.6603 29.575C31.7003 29.505 31.7344 29.4319 31.7623 29.3562C31.8353 29.1812 31.879 28.9917 31.9373 28.8021V28.5833C32.02 28.2984 32.069 28.0047 32.0832 27.7083V7.29167C32.0832 6.13135 31.6222 5.01855 30.8018 4.19808C29.9813 3.3776 28.8685 2.91667 27.7082 2.91667ZM7.2915 29.1667C6.90473 29.1667 6.5338 29.013 6.26031 28.7395C5.98682 28.466 5.83317 28.0951 5.83317 27.7083V21.4229L10.6311 16.6104C10.7667 16.4737 10.928 16.3652 11.1057 16.2912C11.2834 16.2172 11.474 16.179 11.6665 16.179C11.859 16.179 12.0496 16.2172 12.2273 16.2912C12.4051 16.3652 12.5663 16.4737 12.7019 16.6104L25.2436 29.1667H7.2915ZM29.1665 27.7083C29.1651 27.8881 29.1305 28.0661 29.0644 28.2333C29.0311 28.3044 28.9921 28.3727 28.9478 28.4375C28.9087 28.4992 28.8648 28.5578 28.8165 28.6125L21.0144 20.8104L22.2978 19.5271C22.4333 19.3904 22.5946 19.2819 22.7723 19.2079C22.95 19.1338 23.1407 19.0957 23.3332 19.0957C23.5257 19.0957 23.7163 19.1338 23.894 19.2079C24.0717 19.2819 24.233 19.3904 24.3686 19.5271L29.1665 24.3396V27.7083ZM29.1665 20.2125L26.4248 17.5C25.5903 16.7081 24.4836 16.2667 23.3332 16.2667C22.1827 16.2667 21.0761 16.7081 20.2415 17.5L18.9582 18.7833L14.7582 14.5833C13.9236 13.7914 12.817 13.35 11.6665 13.35C10.516 13.35 9.40941 13.7914 8.57484 14.5833L5.83317 17.2958V7.29167C5.83317 6.90489 5.98682 6.53396 6.26031 6.26047C6.5338 5.98698 6.90473 5.83333 7.2915 5.83333H27.7082C28.0949 5.83333 28.4659 5.98698 28.7394 6.26047C29.0129 6.53396 29.1665 6.90489 29.1665 7.29167V20.2125Z" fill="#3688D3"/>
</svg>
