<svg width="163" height="47" viewBox="0 0 163 47" fill="none" xmlns="http://www.w3.org/2000/svg">
<path d="M18.228 25.072C18.228 25.568 18.197 26.0847 18.135 26.622H6.138C6.22067 27.6967 6.56167 28.5233 7.161 29.102C7.781 29.66 8.53533 29.939 9.424 29.939C10.7467 29.939 11.6663 29.381 12.183 28.265H17.825C17.5357 29.4017 17.0087 30.4247 16.244 31.334C15.5 32.2433 14.5597 32.9563 13.423 33.473C12.2863 33.9897 11.0153 34.248 9.61 34.248C7.91533 34.248 6.40667 33.8863 5.084 33.163C3.76133 32.4397 2.728 31.4063 1.984 30.063C1.24 28.7197 0.868 27.149 0.868 25.351C0.868 23.553 1.22967 21.9823 1.953 20.639C2.697 19.2957 3.73033 18.2623 5.053 17.539C6.37567 16.8157 7.89467 16.454 9.61 16.454C11.284 16.454 12.772 16.8053 14.074 17.508C15.376 18.2107 16.3887 19.213 17.112 20.515C17.856 21.817 18.228 23.336 18.228 25.072ZM12.803 23.677C12.803 22.7677 12.493 22.0443 11.873 21.507C11.253 20.9697 10.478 20.701 9.548 20.701C8.65933 20.701 7.905 20.9593 7.285 21.476C6.68567 21.9927 6.31367 22.7263 6.169 23.677H12.803ZM28.8055 29.04L32.5565 16.702H38.1985L32.0605 34H25.5195L19.3815 16.702H25.0545L28.8055 29.04ZM48.3038 34.248C46.6091 34.248 45.0798 33.8863 43.7158 33.163C42.3725 32.4397 41.3081 31.4063 40.5228 30.063C39.7581 28.7197 39.3758 27.149 39.3758 25.351C39.3758 23.5737 39.7685 22.0133 40.5538 20.67C41.3391 19.306 42.4138 18.2623 43.7778 17.539C45.1418 16.8157 46.6711 16.454 48.3658 16.454C50.0605 16.454 51.5898 16.8157 52.9538 17.539C54.3178 18.2623 55.3925 19.306 56.1778 20.67C56.9631 22.0133 57.3558 23.5737 57.3558 25.351C57.3558 27.1283 56.9528 28.699 56.1468 30.063C55.3615 31.4063 54.2765 32.4397 52.8918 33.163C51.5278 33.8863 49.9985 34.248 48.3038 34.248ZM48.3038 29.66C49.3165 29.66 50.1741 29.288 50.8768 28.544C51.6001 27.8 51.9618 26.7357 51.9618 25.351C51.9618 23.9663 51.6105 22.902 50.9078 22.158C50.2258 21.414 49.3785 21.042 48.3658 21.042C47.3325 21.042 46.4748 21.414 45.7928 22.158C45.1108 22.8813 44.7698 23.9457 44.7698 25.351C44.7698 26.7357 45.1005 27.8 45.7618 28.544C46.4438 29.288 47.2911 29.66 48.3038 29.66ZM70.3981 34L67.0811 29.195L64.2911 34H58.5561L64.2601 25.165L58.4011 16.702H64.3531L67.6701 21.476L70.4601 16.702H76.1951L70.3981 25.413L76.3501 34H70.3981ZM90.3824 31.148H97.6674V34H86.8484V12.455H90.3824V31.148ZM116.092 16.919V34H112.558V31.985C112 32.6877 111.266 33.2457 110.357 33.659C109.468 34.0517 108.518 34.248 107.505 34.248C106.162 34.248 104.953 33.969 103.878 33.411C102.824 32.853 101.987 32.0263 101.367 30.931C100.768 29.8357 100.468 28.513 100.468 26.963V16.919H103.971V26.436C103.971 27.9653 104.353 29.1433 105.118 29.97C105.883 30.776 106.926 31.179 108.249 31.179C109.572 31.179 110.615 30.776 111.38 29.97C112.165 29.1433 112.558 27.9653 112.558 26.436V16.919H116.092ZM122.553 14.656C121.912 14.656 121.375 14.439 120.941 14.005C120.507 13.571 120.29 13.0337 120.29 12.393C120.29 11.7523 120.507 11.215 120.941 10.781C121.375 10.347 121.912 10.13 122.553 10.13C123.173 10.13 123.7 10.347 124.134 10.781C124.568 11.215 124.785 11.7523 124.785 12.393C124.785 13.0337 124.568 13.571 124.134 14.005C123.7 14.439 123.173 14.656 122.553 14.656ZM124.289 16.919V34H120.755V16.919H124.289ZM132.06 31.117H139.81V34H127.968V31.117L135.749 19.802H127.968V16.919H139.81V19.802L132.06 31.117ZM142.342 25.382C142.342 23.6667 142.694 22.1477 143.396 20.825C144.12 19.5023 145.091 18.4793 146.31 17.756C147.55 17.012 148.914 16.64 150.402 16.64C151.746 16.64 152.913 16.9087 153.905 17.446C154.918 17.9627 155.724 18.6137 156.323 19.399V16.919H159.888V34H156.323V31.458C155.724 32.264 154.908 32.9357 153.874 33.473C152.841 34.0103 151.663 34.279 150.34 34.279C148.873 34.279 147.53 33.907 146.31 33.163C145.091 32.3983 144.12 31.3443 143.396 30.001C142.694 28.637 142.342 27.0973 142.342 25.382ZM156.323 25.444C156.323 24.266 156.075 23.243 155.579 22.375C155.104 21.507 154.474 20.8457 153.688 20.391C152.903 19.9363 152.056 19.709 151.146 19.709C150.237 19.709 149.39 19.9363 148.604 20.391C147.819 20.825 147.178 21.476 146.682 22.344C146.207 23.1913 145.969 24.204 145.969 25.382C145.969 26.56 146.207 27.5933 146.682 28.482C147.178 29.3707 147.819 30.0527 148.604 30.528C149.41 30.9827 150.258 31.21 151.146 31.21C152.056 31.21 152.903 30.9827 153.688 30.528C154.474 30.0733 155.104 29.412 155.579 28.544C156.075 27.6553 156.323 26.622 156.323 25.444Z" fill="white"/>
</svg>
